:SAMPLES-PER-SECOND 30
:FRAME-RANGE 1-2045
:FULLY-SPECIFIED
:DEGREES
384
root  3.5497 36.1479 86.1932 12.1195 -78.3598 -5.37152
RightUpLeg  -31.9108 18.2499 -1.13808
RightLeg  49.4408 5.62676 6.67315
RightFoot  -18.0485 -0.227427 -1.79823
RightToes  -5.28216e-011 1.2921e-014 -6.02303e-014
Spine  20.4765 -0.293645 -2.37746
Spine1  -0.871968 -0.296627 -1.05487
HEad  -11.3086 -54.8266 27.431
LeftShoulder1  2.24288 -7.64202 -13.7881
LeftArm  4.27785 -31.3689 -48.5627
LeftForeArm  -12.7071 -18.7733 -6.93569
LeftHand  0.0893491 3.0091 -5.34504
RightShoulder  2.34062 4.81413 22.6826
RightArm  -36.5268 21.793 64.4427
RightForeArm  25.1555 12.675 -1.22801
RightHand  0.00230431 1.48076 -0.0976147
LeftUpLeg  -40.0625 -12.8725 10.9732
LeftLeg  46.2181 2.09341 2.77447
LeftFoot  -10.8657 0.10651 -9.99267
LeftToes  9.43379e-011 5.24309e-011 -4.66411e-011
385
root  2.7844 36.15 86.7011 12.695 -84.0327 -6.40625
RightUpLeg  -30.7358 19.6739 -1.81734
RightLeg  50.3837 7.76876 9.61015
RightFoot  -18.682 -0.335939 -3.2671
RightToes  -5.28216e-011 1.2921e-014 -6.02303e-014
Spine  20.2846 -0.228277 -2.88688
Spine1  -0.977149 -0.0949334 -2.28888
HEad  -11.395 -53.2792 27.6098
LeftShoulder1  2.18735 -7.48279 -13.5544
LeftArm  2.75935 -32.0676 -48.068
LeftForeArm  -10.5181 -15.496 -8.52832
LeftHand  0.0813497 3.17664 -5.38564
RightShoulder  2.44285 5.08179 23.0051
RightArm  -37.1084 20.7364 65.6712
RightForeArm  24.6999 11.8915 -1.88513
RightHand  -0.0353295 0.658196 -0.750492
LeftUpLeg  -41.2393 -16.13 12.9124
LeftLeg  35.1391 -1.7063 -0.916342
LeftFoot  -7.83595 0.416651 -12.0511
LeftToes  9.43379e-011 5.24309e-011 -4.66411e-011
386
root  1.97399 36.0393 87.2248 72.3999 -89.4327 -66.8331
RightUpLeg  -29.9618 20.3572 -2.00541
RightLeg  52.626 9.01911 12.0972
RightFoot  -19.0364 -0.422089 -4.36034
RightToes  -5.28216e-011 1.2921e-014 -6.02303e-014
Spine  19.9495 0.0406965 -3.38211
Spine1  -0.712919 0.225107 -2.98134
HEad  -10.8531 -50.7594 27.2079
LeftShoulder1  2.27569 -7.77131 -13.8508
LeftArm  2.60951 -33.0048 -47.2835
LeftForeArm  -9.8742 -12.4171 -10.2167
LeftHand  0.0436927 3.54882 -4.18568
RightShoulder  2.491 5.17328 23.276
RightArm  -37.7776 20.0287 66.2101
RightForeArm  25.0037 10.5198 -2.84961
RightHand  -0.0513642 0.582431 -1.06531
LeftUpLeg  -41.9446 -19.0478 15.8299
LeftLeg  26.887 -7.09053 -3.54783
LeftFoot  -7.41901 0.547902 -14.6416
LeftToes  9.43379e-011 5.24309e-011 -4.66411e-011
387
root  1.15414 35.7574 87.7695 -176.601 -84.6413 -178.5
RightUpLeg  -29.7025 19.618 -2.00417
RightLeg  55.884 8.51345 12.88
RightFoot  -20.0127 -0.490915 -4.68746
RightToes  -5.28216e-011 1.2921e-014 -6.02303e-014
Spine  19.5719 0.177049 -4.64968
Spine1  -0.426523 0.286642 -3.35257
HEad  -9.92996 -47.5953 26.7827
LeftShoulder1  2.35453 -7.92777 -14.3079
LeftArm  -2.16504 -33.4774 -47.6968
LeftForeArm  -4.18057 -9.01961 -10.7949
LeftHand  0.0294739 3.93791 -4.3704
RightShoulder  2.49886 5.17337 23.3739
RightArm  -37.8387 19.3786 66.2275
RightForeArm  25.3464 9.18994 -3.3059
RightHand  -0.0170336 0.499472 -0.391405
LeftUpLeg  -43.2847 -21.3265 17.9868
LeftLeg  24.4682 -9.10179 -4.1595
LeftFoot  -10.8854 0.118108 -13.3045
LeftToes  9.43379e-011 5.24309e-011 -4.66411e-011
